<svg width="411" height="411" viewBox="0 0 411 411" fill="none" xmlns="http://www.w3.org/2000/svg">
<rect x="104.805" y="19.5225" width="199.335" height="370.927" rx="32" fill="black"/>
<rect x="109.942" y="25.6875" width="190.087" height="359.625" rx="32" fill="#F2F2F2"/>
<rect x="153.097" y="22.605" width="103.777" height="11.3025" rx="4.5" fill="black"/>
<circle cx="203.959" cy="356.029" r="12.8438" fill="#C4C4C4" fill-opacity="0.8"/>
<rect x="146.933" y="165.427" width="114.052" height="15.4125" rx="4" fill="#AE4949"/>
<circle cx="204.986" cy="99.1538" r="33.3937" fill="#AE4949"/>
<rect x="117.135" y="193.17" width="170.565" height="30.825" fill="#C8A2A2"/>
<circle cx="122.273" cy="200.363" r="2.055" fill="white"/>
<circle cx="122.273" cy="207.555" r="2.055" fill="white"/>
<circle cx="122.273" cy="214.748" r="2.055" fill="white"/>
<g filter="url(#filter0_d)">
<rect x="114.052" y="241.463" width="180.84" height="41.1" fill="#C8A2A2" fill-opacity="0.8"/>
<ellipse cx="119.499" cy="251.053" rx="2.1788" ry="2.74" fill="white" fill-opacity="0.8"/>
<ellipse cx="119.499" cy="260.643" rx="2.1788" ry="2.74" fill="white" fill-opacity="0.8"/>
<ellipse cx="119.499" cy="270.233" rx="2.1788" ry="2.74" fill="white" fill-opacity="0.8"/>
</g>
<rect x="119.19" y="300.03" width="170.565" height="30.825" fill="#C8A2A2"/>
<circle cx="124.327" cy="307.222" r="2.055" fill="white"/>
<circle cx="124.327" cy="314.415" r="2.055" fill="white"/>
<circle cx="124.327" cy="321.607" r="2.055" fill="white"/>
<defs>
<filter id="filter0_d" x="110.052" y="241.463" width="188.84" height="53.1" filterUnits="userSpaceOnUse" color-interpolation-filters="sRGB">
<feFlood flood-opacity="0" result="BackgroundImageFix"/>
<feColorMatrix in="SourceAlpha" type="matrix" values="0 0 0 0 0 0 0 0 0 0 0 0 0 0 0 0 0 0 127 0"/>
<feOffset dy="8"/>
<feGaussianBlur stdDeviation="2"/>
<feColorMatrix type="matrix" values="0 0 0 0 0 0 0 0 0 0 0 0 0 0 0 0 0 0 0.25 0"/>
<feBlend mode="normal" in2="BackgroundImageFix" result="effect1_dropShadow"/>
<feBlend mode="normal" in="SourceGraphic" in2="effect1_dropShadow" result="shape"/>
</filter>
</defs>
</svg>
